<?xml version="1.0" encoding="UTF-8" standalone="no"?>
<svg
   width="400"
   height="400"
   version="1.1"
   id="svg6"
   sodipodi:docname="avatar.svg"
   inkscape:version="1.4.4 (dcaf3e7d9e, 2026-05-05)"
   viewBox="0 0 16 16"
   xml:space="preserve"
   inkscape:export-filename="avatar.png"
   inkscape:export-xdpi="2400"
   inkscape:export-ydpi="2400"
   xmlns:inkscape="http://www.inkscape.org/namespaces/inkscape"
   xmlns:sodipodi="http://sodipodi.sourceforge.net/DTD/sodipodi-0.dtd"
   xmlns="http://www.w3.org/2000/svg"
   xmlns:svg="http://www.w3.org/2000/svg"><defs
     id="defs6" /><sodipodi:namedview
     id="namedview6"
     pagecolor="#ffffff"
     bordercolor="#111111"
     borderopacity="1"
     inkscape:showpageshadow="0"
     inkscape:pageopacity="0"
     inkscape:pagecheckerboard="1"
     inkscape:deskcolor="#d1d1d1"
     showgrid="true"
     inkscape:zoom="45.254834"
     inkscape:cx="3.4581941"
     inkscape:cy="9.6785241"
     inkscape:window-width="1920"
     inkscape:window-height="1011"
     inkscape:window-x="0"
     inkscape:window-y="0"
     inkscape:window-maximized="1"
     inkscape:current-layer="svg6"><inkscape:grid
       id="grid2"
       units="px"
       originx="0"
       originy="0"
       spacingx="1"
       spacingy="1"
       empcolor="#0099e5"
       empopacity="0.30196078"
       color="#0099e5"
       opacity="0.14901961"
       empspacing="0"
       dotted="false"
       gridanglex="30"
       gridanglez="30"
       visible="true" /></sodipodi:namedview><path
     id="path1"
     style="opacity:1;fill:#3584e4;fill-opacity:1;stroke:none;stroke-width:2.15914;stroke-linecap:round;stroke-linejoin:round;paint-order:stroke fill markers"
     d="M 7.9453399,1.0839723 A 6.6916763,6.6916763 0 0 0 1.2549858,7.7743264 6.6916763,6.6916763 0 0 0 7.9453399,14.46468 6.6916763,6.6916763 0 0 0 14.635694,7.7743264 6.6916763,6.6916763 0 0 0 7.9453399,1.0839723 Z M 5.4941774,5.2294228 C 6.4338169,5.2053815 7.0986113,5.680909 7.3099819,6.236274 A 0.08888068,0.08888068 0 0 1 7.2579034,6.3508474 0.08888068,0.08888068 0 0 1 7.14333,6.2987689 C 6.9229552,5.7197444 6.0840618,5.1794459 4.8484038,5.5037029 A 0.08888068,0.08888068 0 0 1 4.7407746,5.4377373 0.08888068,0.08888068 0 0 1 4.8032694,5.3301081 C 5.0474015,5.2660441 5.277338,5.2349711 5.4941774,5.2294228 Z M 11.299196,8 c 0.545777,-0.022722 0.922644,0.1684445 1.173505,0.4201001 0.321096,0.322119 0.443979,0.7341391 0.503426,0.8992229 A 0.08888068,0.08888068 0 0 1 12.920577,9.4339003 0.08888068,0.08888068 0 0 1 12.806,9.3818253 C 12.741482,9.2026785 12.630657,8.828946 12.347707,8.5450979 12.064762,8.2612419 11.619071,8.0596492 10.840907,8.2465051 a 0.08888068,0.08888068 0 0 1 -0.107625,-0.065966 0.08888068,0.08888068 0 0 1 0.06597,-0.1076292 c 0.180012,-0.043225 0.347138,-0.066548 0.499953,-0.07291 z m -5.8050186,2.638645 a 0.08888068,0.08888068 0 0 1 0.079854,0.0382 c 0.672118,1.043369 1.4589708,1.412354 2.0796689,1.517215 0.158048,0.0267 0.3055004,0.03575 0.4374597,0.03472 0.019522,-0.480859 0.1758418,-0.677619 0.3402462,-0.697853 0.2194912,-0.027 0.4449105,0.252171 0.3610776,0.555504 a 0.08888068,0.08888068 0 0 1 0.059027,0.09721 c -1.777e-4,8.17e-4 -0.00658,0.02344 -0.00698,0.02431 -3.555e-4,8.91e-4 -0.00408,0.0092 -0.00698,0.01389 -0.00593,0.0091 -0.01185,0.01533 -0.017367,0.02083 -0.011192,0.01106 -0.020053,0.02066 -0.031245,0.02777 -0.022541,0.0141 -0.048414,0.0261 -0.079856,0.03818 -0.062884,0.02433 -0.1486411,0.04739 -0.2534485,0.06597 -0.2095355,0.03707 -0.4972598,0.05268 -0.8297042,-0.0034 C 6.961044,12.258834 6.1208758,11.854734 5.4247472,10.774085 a 0.08888068,0.08888068 0 0 1 0.027775,-0.121516 0.08888068,0.08888068 0 0 1 0.041662,-0.01389 z" /><path
     style="opacity:0.502598;fill:#99c1f1;fill-opacity:1;stroke:none;stroke-width:0.177761;stroke-linecap:round;stroke-linejoin:round;stroke-dasharray:none;stroke-opacity:1;paint-order:stroke fill markers"
     d="M 4.8549488,6.6711245 C 5.0178095,7.198545 6.7484158,7.4321644 6.4008469,7.0666095 5.7455693,6.3774219 4.8549488,6.6711245 4.8549488,6.6711245 Z"
     id="path6"
     sodipodi:nodetypes="csc" /><path
     style="opacity:0.501347;fill:#99c1f1;fill-opacity:1;stroke:none;stroke-width:0.177761;stroke-linecap:round;stroke-linejoin:round;stroke-dasharray:none;stroke-opacity:1;paint-order:stroke fill markers"
     d="m 10.80106,9.5073973 c 0.404931,0.5802867 1.358277,0.6502167 1.358277,0.6502167 0,0 -0.0422,-0.4415759 -0.480233,-0.6502167 -0.357169,-0.170124 -0.809522,-0.1747522 -0.878044,0 z"
     id="path7"
     sodipodi:nodetypes="ccsc" /><path
     style="opacity:1;fill:none;fill-opacity:1;stroke:#3584e4;stroke-width:0.1;stroke-linecap:round;stroke-linejoin:round;stroke-dasharray:none;stroke-opacity:1;paint-order:stroke fill markers"
     d="m 8.4707794,11.758463 c 0.073908,0.19913 -0.00456,0.36974 -0.00456,0.36974"
     id="path11"
     sodipodi:nodetypes="cc" /></svg>
